<svg width="139" height="43" viewBox="0 0 139 43" fill="none" xmlns="http://www.w3.org/2000/svg">
<path d="M41.4286 11H58L43.6883 35.1039H27.1169L41.4286 11Z" fill="#1E28FF"/>
<path d="M26.3636 11H38.4156L24.1039 35.1039H12.0519L26.3636 11Z" fill="#5B62F6"/>
<path d="M14.3117 11H23.3506L9.03896 35.1039H0L14.3117 11Z" fill="#8E93FF"/>
<path d="M71.1 35.35C69.56 35.35 68.1717 34.965 66.935 34.195C65.6983 33.425 64.73 32.375 64.03 31.045C63.33 29.715 62.98 28.2217 62.98 26.565C62.98 24.885 63.33 23.38 64.03 22.05C64.73 20.72 65.6983 19.67 66.935 18.9C68.1717 18.13 69.56 17.745 71.1 17.745C72.3133 17.745 73.3983 17.99 74.355 18.48C75.3117 18.97 76.07 19.6583 76.63 20.545C77.2133 21.4083 77.5283 22.3883 77.575 23.485V29.575C77.5283 30.695 77.2133 31.6867 76.63 32.55C76.07 33.4133 75.3117 34.1017 74.355 34.615C73.3983 35.105 72.3133 35.35 71.1 35.35ZM71.94 31.115C73.2233 31.115 74.2617 30.695 75.055 29.855C75.8483 28.9917 76.245 27.8833 76.245 26.53C76.245 25.6433 76.0583 24.8617 75.685 24.185C75.335 23.485 74.8333 22.9483 74.18 22.575C73.55 22.1783 72.8033 21.98 71.94 21.98C71.1 21.98 70.3533 22.1783 69.7 22.575C69.07 22.9483 68.5683 23.485 68.195 24.185C67.845 24.8617 67.67 25.6433 67.67 26.53C67.67 27.44 67.845 28.245 68.195 28.945C68.5683 29.6217 69.07 30.1583 69.7 30.555C70.3533 30.9283 71.1 31.115 71.94 31.115ZM76 35V30.45L76.735 26.32L76 22.26V18.095H80.55V35H76ZM91.8162 35.35C90.3228 35.35 88.9928 35.035 87.8262 34.405C86.6828 33.775 85.7845 32.9 85.1312 31.78C84.4778 30.66 84.1512 29.365 84.1512 27.895V18.095H88.7712V27.79C88.7712 28.49 88.8878 29.0967 89.1212 29.61C89.3545 30.1 89.7045 30.4733 90.1712 30.73C90.6378 30.9867 91.1862 31.115 91.8162 31.115C92.7728 31.115 93.5195 30.8233 94.0562 30.24C94.5928 29.6567 94.8612 28.84 94.8612 27.79V18.095H99.4462V27.895C99.4462 29.3883 99.1195 30.695 98.4662 31.815C97.8362 32.935 96.9378 33.81 95.7712 34.44C94.6278 35.0467 93.3095 35.35 91.8162 35.35ZM105.582 35V11.06H110.167V35H105.582ZM101.627 22.12V18.095H114.122V22.12H101.627ZM128.076 35V25.305C128.076 24.3017 127.761 23.485 127.131 22.855C126.501 22.225 125.684 21.91 124.681 21.91C124.028 21.91 123.444 22.05 122.931 22.33C122.418 22.61 122.009 23.0067 121.706 23.52C121.426 24.0333 121.286 24.6283 121.286 25.305L119.501 24.395C119.501 23.065 119.781 21.91 120.341 20.93C120.901 19.9267 121.671 19.145 122.651 18.585C123.654 18.025 124.798 17.745 126.081 17.745C127.364 17.745 128.496 18.025 129.476 18.585C130.479 19.145 131.261 19.915 131.821 20.895C132.381 21.875 132.661 23.0067 132.661 24.29V35H128.076ZM116.701 35V9.695H121.286V35H116.701Z" fill="#3F3F3F"/>
</svg>
